<?xml version="1.0" encoding="UTF-8" standalone="no"?>
<!-- Created with Inkscape (http://www.inkscape.org/) -->

<svg
   xmlns:dc="http://purl.org/dc/elements/1.1/"
   xmlns:cc="http://creativecommons.org/ns#"
   xmlns:rdf="http://www.w3.org/1999/02/22-rdf-syntax-ns#"
   xmlns:svg="http://www.w3.org/2000/svg"
   xmlns="http://www.w3.org/2000/svg"
   xmlns:sodipodi="http://sodipodi.sourceforge.net/DTD/sodipodi-0.dtd"
   xmlns:inkscape="http://www.inkscape.org/namespaces/inkscape"
   width="125.2802mm"
   height="34.94244mm"
   viewBox="0 0 443.90624 123.81179"
   id="svg2"
   version="1.1"
   inkscape:version="0.91 r13725"
   sodipodi:docname="logo2.svg">
  <defs
     id="defs4" />
  <sodipodi:namedview
     id="base"
     pagecolor="#ffffff"
     bordercolor="#666666"
     borderopacity="1.0"
     inkscape:pageopacity="0.0"
     inkscape:pageshadow="2"
     inkscape:zoom="0.98994949"
     inkscape:cx="413.51457"
     inkscape:cy="-29.732904"
     inkscape:document-units="px"
     inkscape:current-layer="layer1"
     showgrid="false"
     inkscape:window-width="1366"
     inkscape:window-height="705"
     inkscape:window-x="0"
     inkscape:window-y="24"
     inkscape:window-maximized="1"
     fit-margin-top="0"
     fit-margin-left="0"
     fit-margin-right="0"
     fit-margin-bottom="0" />
  <metadata
     id="metadata7">
    <rdf:RDF>
      <cc:Work
         rdf:about="">
        <dc:format>image/svg+xml</dc:format>
        <dc:type
           rdf:resource="http://purl.org/dc/dcmitype/StillImage" />
        <dc:title></dc:title>
      </cc:Work>
    </rdf:RDF>
  </metadata>
  <g
     inkscape:label="Layer 1"
     inkscape:groupmode="layer"
     id="layer1"
     transform="translate(-157.48559,-542.43875)">
    <path
       style="fill:#000000"
       d="m 168.96996,666.25036 -10.54687,1.9e-4 0.16732,-10.54707 0.16732,-10.54707 10.32951,-0.26461 10.32952,-0.26461 0.28441,4.95211 0.28442,4.95211 199.8731,0.22815 199.87309,0.22814 0.28316,-4.91564 0.28315,-4.91565 10.54687,-0.26508 10.54688,-0.26508 0,10.81196 0,10.81195 -10.78125,0 -10.78125,0 0,-4.6875 0,-4.6875 -200.15625,0 -200.15625,0 0,4.6875 0,4.6875 -10.54688,2e-4 z m 0,-2.07308 8.20313,-0.27087 0.27087,-8.20313 0.27088,-8.20312 -8.474,0 -8.474,0 0,8.474 0,8.474 8.20312,-0.27088 z m 421.875,0 8.20313,-0.27087 0,-7.96875 0,-7.96875 -8.20313,-0.27087 -8.20312,-0.27088 0,8.5105 0,8.5105 8.20312,-0.27088 z m -261.39509,-14.80212 -3.68303,0 0,-5.86613 0,-5.86613 4.2612,0.33891 4.26121,0.3389 1.44154,2.20007 1.44154,2.20007 -0.60791,1.91536 c -0.33435,1.05344 -1.24322,2.55066 -2.01971,3.32715 l -1.4118,1.4118 -3.68304,0 z m 1.18082,-1.875 1.73885,0 1.05523,-2.31599 1.05523,-2.31598 -1.19012,-1.43402 -1.19012,-1.43401 -1.65765,0 -1.65764,0 -0.3864,3.30991 c -0.21254,1.82045 -0.18838,3.50795 0.0537,3.75 0.24206,0.24204 1.22258,0.44009 2.17895,0.44009 z m 12.94865,1.875 -4.6875,0 -7.3e-4,-5.85938 -7.2e-4,-5.85937 4.22085,0.11209 4.22086,0.11209 0.23299,0.82541 0.233,0.82541 -3.04688,0.29377 -3.04687,0.29378 0,1.34685 0,1.34685 2.8125,0 2.8125,0 0,0.9375 0,0.9375 -2.8125,0 -2.8125,0 0,1.40625 0,1.40625 3.28125,0 3.28125,0 0,0.9375 0,0.9375 -4.6875,0 z m 11.81057,-0.16616 -1.4926,0.30259 -0.82882,-2.17759 c -0.45584,-1.19768 -1.47997,-3.73506 -2.27584,-5.63863 l -1.44703,-3.46106 1.10124,-0.3886 1.10123,-0.3886 1.99199,4.31839 1.99199,4.31841 1.0827,-2.8125 c 0.59548,-1.54688 1.26789,-3.33984 1.49422,-3.98438 l 0.4115,-1.17187 1.37088,0 1.37089,0 -2.18987,5.39062 -2.18987,5.39063 -1.49261,0.30259 z m 12.56443,0.16616 -4.6875,0 0,-5.85938 0,-5.85937 4.21875,0 4.21875,0 0,1.11248 0,1.11247 -3.04688,0.29378 -3.04687,0.29377 0,0.9375 0,0.9375 3.04687,0.29377 3.04688,0.29378 0,0.8187 0,0.8187 -3.04688,0.29378 -3.04687,0.29377 0,0.9375 0,0.9375 3.51562,0.29097 3.51563,0.29096 0,0.88092 0,0.8809 -4.6875,0 z m 10.3125,0 -3.75,0 0,-5.625 0,-5.625 1.40625,0 1.40625,0 0,4.6875 0,4.6875 2.34375,0 2.34375,0 0,0.9375 0,0.9375 -3.75,0 z m 11.55586,0 -2.82775,0 -1.55156,-1.71444 -1.55155,-1.71445 0,-2.85827 0,-2.85826 1.4562,-1.20854 1.45621,-1.20854 2.75045,0 2.75044,0 1.8871,1.7078 1.8871,1.70781 0,2.52189 0,2.52189 -1.71444,1.55156 -1.71445,1.55155 -2.82775,0 z m 0.16289,-1.875 c 0.64717,0 1.68258,-0.60959 2.30092,-1.35465 l 1.12426,-1.35465 -0.30634,-2.16098 -0.30634,-2.16097 -2.8125,0 -2.8125,0 -0.30634,2.16097 -0.30634,2.16098 1.12425,1.35465 c 0.61835,0.74506 1.65376,1.35465 2.30093,1.35465 z m 9.375,1.875 -1.40625,0 0,-5.625 0,-5.625 4.10396,0 4.10396,0 1.19012,1.43401 1.19012,1.43402 -1.05523,2.31598 -1.05523,2.31599 -2.8326,0 -2.8326,0 0,1.875 0,1.875 -1.40625,0 z m 3.51562,-5.79417 2.10938,-0.29958 0,-1.40625 0,-1.40625 -2.10938,-0.29958 -2.10937,-0.29958 0,2.00541 0,2.00541 2.10937,-0.29958 z m 11.95313,5.79417 -4.6875,0 -7.3e-4,-5.85938 -7.2e-4,-5.85937 4.22085,0.11209 4.22086,0.11209 0.23299,0.82541 0.233,0.82541 -3.04688,0.29377 -3.04687,0.29378 0,1.34685 0,1.34685 2.8125,0 2.8125,0 0,0.9375 0,0.9375 -2.8125,0 -2.8125,0 0,1.40625 0,1.40625 3.28125,0 3.28125,0 0,0.9375 0,0.9375 -4.6875,0 z m 7.96875,0 -1.40625,0 0,-5.67637 0,-5.67636 4.3571,0.28574 4.35708,0.28574 1.0267,1.63738 1.02669,1.63739 -1.18646,1.89984 -1.18646,1.89982 0.99191,1.85341 0.99191,1.85341 -1.40625,0 -1.40625,0 -1.00347,-1.875 -1.00347,-1.875 -1.37326,0 -1.37327,0 0,1.875 0,1.875 -1.40625,0 z m 3.75,-5.625 2.34375,0 0,-1.875 0,-1.875 -2.34375,0 -2.34375,0 0,1.875 0,1.875 2.34375,0 z m 112.15098,-7.5 c -0.92523,0 -1.96348,-0.28125 -2.30723,-0.625 -0.34375,-0.34375 -0.625,-1.41524 -0.625,-2.38109 0,-0.96586 0.80512,-3.32133 1.78914,-5.23438 l 1.78914,-3.47828 2.98578,-2.8125 2.98577,-2.8125 2.27698,-4.46269 2.27697,-4.46268 -4.3112,3.29081 -4.3112,3.29081 -2.26399,0 -2.264,0 -1.1255,-1.8022 -1.12548,-1.8022 -3.53261,1.8022 -3.5326,1.8022 -4.51626,0 -4.51624,0 -2.0836,-1.45941 -2.0836,-1.45941 -2.0836,1.45941 -2.0836,1.45941 -3.05103,0 -3.05104,0 -1.51234,-2.30811 -1.51233,-2.30811 1.15929,-3.55126 c 0.6376,-1.9532 2.59829,-5.81219 4.35707,-8.57554 l 3.19779,-5.02427 -0.52764,-0.52764 -0.52765,-0.52765 -6.84739,6.95816 c -3.76606,3.827 -8.36336,8.83393 -10.21622,11.12652 l -3.36885,4.16834 -1.98254,-0.88709 -1.98254,-0.8871 6.87644,-11.7183 6.87643,-11.7183 2.46172,-1.38173 2.46172,-1.38173 0.67419,0.67419 0.67419,0.6742 -1.29407,2.58208 c -0.71175,1.42015 -1.48339,3.00392 -1.71477,3.51949 -0.23136,0.51558 1.17306,-0.4619 3.12095,-2.17217 1.94789,-1.71027 4.60516,-3.51394 5.90504,-4.00816 l 2.36343,-0.89857 1.75117,0.5558 1.75118,0.5558 0,1.61581 0,1.61581 -4.68556,7.42021 c -2.57707,4.08112 -4.94252,8.22981 -5.25658,9.21931 l -0.571,1.7991 1.22168,0.75504 1.22168,0.75504 1.92552,-1.00738 c 1.05903,-0.55406 3.59567,-2.50158 5.63697,-4.32782 l 3.71146,-3.32044 -0.27535,-3.19607 -0.27537,-3.19607 2.18891,-2.34352 c 1.20389,-1.28894 3.30473,-2.92417 4.66854,-3.63385 1.36381,-0.70968 4.19669,-1.67612 6.2953,-2.14764 l 3.81567,-0.85733 1.55776,1.13907 1.55776,1.13906 -1.0552,1.97167 -1.0552,1.97167 -1.99303,0.63256 -1.99304,0.63257 -0.70124,-1.13462 -0.70123,-1.13461 -2.2286,1.15476 c -1.22573,0.63511 -2.96688,1.79874 -3.86922,2.58584 -0.90235,0.78709 -1.64063,1.80669 -1.64063,2.26576 l 0,0.83468 3.17389,-0.59542 3.17389,-0.59543 0.6146,0.99445 0.6146,0.99445 -5.69126,3.54287 -5.69127,3.54287 0.26216,1.875 0.26214,1.875 3.82879,-0.0694 3.82879,-0.0694 5.1617,-3.60709 5.16171,-3.60708 4.1345,-7.33687 4.13451,-7.33688 1.11654,-0.002 c 0.6141,-10e-4 1.36567,0.40083 1.67014,0.89348 l 0.5536,0.89573 -4.72557,9.41677 -4.72555,9.41678 1.03719,0 1.03721,0 6.57395,-6.32813 c 3.61567,-3.48046 7.81367,-8.12109 9.32889,-10.3125 l 2.75492,-3.98437 1.82997,0 1.82996,0 -0.008,1.17187 c -0.005,0.64454 -3.15543,6.63417 -7.0022,13.31029 -3.84679,6.67613 -6.80609,12.32647 -6.57626,12.55631 0.22985,0.22984 3.53467,-2.37159 7.34404,-5.78096 l 6.92614,-6.19887 0.59568,0.59568 c 0.32798,0.32762 0.59604,1.18542 0.59604,1.90621 l 0,1.31052 -3.04688,2.49347 c -1.67578,1.3714 -6.14594,5.45745 -9.93372,9.0801 l -6.88683,6.58663 -1.23674,2.34375 c -0.68019,1.28906 -2.1327,3.29297 -3.2278,4.45312 l -1.99107,2.10938 -1.68223,0 z m -177.75025,-13.125 c -0.59049,0 -1.86071,-0.57554 -2.82271,-1.27898 l -1.74911,-1.27897 2.68009,-4.5804 c 1.47405,-2.51922 5.82574,-9.01009 9.67041,-14.42415 3.84467,-5.41406 10.51232,-14.13342 14.81699,-19.37635 4.30467,-5.24293 9.32171,-10.76493 11.14898,-12.27112 l 3.32231,-2.73853 3.2137,-0.12082 3.2137,-0.12081 0.58521,0.94687 0.58519,0.94688 -6.31273,11.44506 c -3.472,6.29479 -7.61393,13.76538 -9.2043,16.60132 l -2.89156,5.15625 15.92155,-16.31214 c 8.75686,-8.97168 17.05848,-17.01077 18.44807,-17.86465 l 2.5265,-1.55251 3.33287,0.38909 3.33286,0.3891 0,0.97455 c 0,0.536 -3.51946,5.86875 -7.82101,11.85055 -4.30156,5.98181 -9.93167,14.04007 -12.51136,17.90726 -2.57969,3.86719 -5.19227,7.98047 -5.80572,9.14062 l -1.11538,2.10938 1.01065,0 c 0.55585,0 3.04023,-1.89844 5.52084,-4.21875 2.48059,-2.32031 4.78283,-4.21875 5.11607,-4.21875 l 0.60591,0 0,2.70864 0,2.70864 -1.64062,1.89089 c -0.90235,1.03999 -3.67685,3.40704 -6.16557,5.26011 l -4.52493,3.36922 -2.7077,0 -2.70771,0 -1.00943,-1.88614 -1.00943,-1.88613 1.78225,-3.97324 c 0.98024,-2.18528 5.42745,-9.3773 9.8827,-15.98227 4.45524,-6.60496 8.10044,-12.16213 8.10044,-12.34926 0,-0.18713 -4.73523,4.58412 -10.52273,10.60277 -5.7875,6.01866 -13.58207,14.02187 -17.32127,17.78491 l -6.79855,6.84189 -1.89748,-1.0155 -1.89747,-1.0155 0,-1.49901 0,-1.49901 7.94228,-15.57738 7.94228,-15.57738 -3.35432,3.75 c -1.84488,2.0625 -6.67324,8.17969 -10.72969,13.59375 -4.05646,5.41406 -9.56508,13.53516 -12.24141,18.04687 l -4.86605,8.20313 -1.07362,0 z m -152.4805,-5.69901 c -0.71238,-0.0407 -1.82257,-0.2868 -2.46711,-0.54688 l -1.17187,-0.47286 0.005,-2.5 0.005,-2.5 2.24525,-2.80625 2.24524,-2.80625 1.71922,-0.006 1.71921,-0.006 9.56527,-14.0625 c 5.26089,-7.73438 9.59198,-14.3449 9.62463,-14.69006 l 0.0593,-0.62749 -3.51563,1.0013 -3.51562,1.00129 -7.12999,0.088 -7.12998,0.088 -1.54189,-1.27965 -1.54189,-1.27965 0,-2.19598 0,-2.19597 1.81337,-0.97048 c 0.99735,-0.53377 2.24973,-0.97049 2.78307,-0.97049 l 0.96971,0 -0.50382,1.31295 -0.50383,1.31295 3.58013,0.60179 3.58012,0.60179 8.4375,-0.95916 8.4375,-0.95916 5.7565,-2.91863 5.75649,-2.91862 1.97788,1.05853 1.97788,1.05853 0,1.74022 0,1.74022 -3.76897,1.50805 c -2.07294,0.82942 -4.58356,1.50804 -5.57918,1.50804 l -1.81022,0 -6.01619,8.67187 c -3.30891,4.76954 -8.46613,12.67969 -11.46049,17.57813 l -5.44429,8.90625 -3.93072,3.98437 -3.93073,3.98438 -1.29523,-0.074 z m 53.48595,-0.86349 -2.7067,0 -1.53298,-2.33961 -1.53298,-2.33962 0.5853,-3.11986 0.58529,-3.11986 2.71377,-4.27917 2.71376,-4.27917 4.33251,-2.98084 4.33249,-2.98083 3.24687,-0.5269 3.24687,-0.52689 1.34073,1.1127 1.34071,1.1127 1.92507,-1.20223 1.92506,-1.20222 0.96858,0.96857 0.96857,0.96858 -3.75767,7.26152 -3.75768,7.26153 0,2.76205 0,2.76205 1.375,0 1.375,0 3.29611,-3.29611 c 1.81286,-1.81286 3.96628,-4.59208 4.78538,-6.17605 l 1.48928,-2.87994 -1.70726,-1.31276 -1.70726,-1.31277 3.94808,-3.76119 3.94806,-3.76118 1.85598,0 1.85598,0 0.55358,0.89573 0.5536,0.89572 -4.76737,9.50009 -4.76737,9.50008 0.40834,1.08857 0.40833,1.08856 6.55813,-6.62078 6.55814,-6.62078 1.69734,-3.22297 1.69734,-3.22297 0.0584,-2.79898 0.0584,-2.79898 1.81303,-0.34984 1.81304,-0.34984 1.15852,1.58437 1.15851,1.58437 -0.99787,2.9707 c -0.54881,1.63388 -2.79229,5.50195 -4.98548,8.5957 -2.1932,3.09375 -5.19073,6.74218 -6.66118,8.10763 -1.47045,1.36544 -4.31445,3.58028 -6.31999,4.92187 l -3.64645,2.43925 -2.16634,0 -2.16634,0 -0.86385,-1.54362 -0.86386,-1.54362 -2.20383,1.54362 -2.20383,1.54362 -2.4164,0 -2.4164,0 -1.125,-1.125 -1.125,-1.125 0,-2.6468 0,-2.6468 -4.77169,3.7718 -4.77168,3.7718 -2.7067,0 z m 1.76009,-5.60205 c 0.87105,-0.50579 3.31505,-2.51084 5.43112,-4.45566 2.11606,-1.94482 5.22551,-5.34846 6.90989,-7.56365 l 3.0625,-4.0276 -0.47114,-0.47115 -0.47114,-0.47114 -2.43126,0.6102 -2.43124,0.61021 -4.13816,3.64254 -4.13814,3.64255 -1.938,3.91704 -1.938,3.91704 0.48492,0.78462 0.48492,0.78462 1.58373,-0.91962 z m 52.61418,5.60205 -3.39609,0 -1.55156,-1.71444 -1.55155,-1.71445 0,-1.7212 0,-1.7212 3.69921,-6.74015 3.6992,-6.74015 -0.93483,-0.93483 -0.93483,-0.93483 3.36199,-2.95188 3.362,-2.95187 1.40305,0 1.40306,0 0.53906,1.40478 0.53906,1.40477 -5.25598,9.28284 c -2.8908,5.10556 -5.25599,9.74685 -5.25599,10.31397 l 0,1.03114 2.1875,0 2.1875,0 2.73437,-2.78646 c 1.50391,-1.53255 3.16923,-2.79818 3.70072,-2.8125 l 0.96634,-0.026 1.0616,2.8125 1.0616,2.8125 2.45529,0 2.4553,0 3.25114,-1.35841 3.25114,-1.35842 0,-0.91881 0,-0.91881 -5.39063,-1.56139 c -2.96484,-0.85876 -5.91796,-1.99504 -6.5625,-2.52507 l -1.17187,-0.96367 0,-2.10253 0,-2.10253 1.96748,-2.50125 1.96749,-2.50126 4.82939,-2.45082 4.82939,-2.45082 5.15625,-0.0962 5.15625,-0.0962 0.29148,2.52452 0.29147,2.52453 -2.89713,1.49816 -2.89714,1.49817 -0.90996,-0.5624 c -0.50049,-0.30931 -0.90997,-1.14469 -0.90997,-1.8564 l 0,-1.29402 -4.10016,1.39706 -4.10016,1.39707 -2.13402,2.27156 -2.13403,2.27157 1.31231,0.44693 c 0.72177,0.24581 3.21075,0.92888 5.53106,1.51793 l 4.21875,1.071 1.64062,1.46433 1.64063,1.46434 0,2.03503 0,2.03503 -2.12217,1.99368 c -1.16719,1.09652 -3.68489,2.64662 -5.59489,3.44466 l -3.47272,1.451 -3.94066,0 -3.94067,0 -1.65705,-1.49961 -1.65705,-1.49961 -2.141,1.49961 -2.14099,1.49961 -3.3961,0 z m 104.96949,0 -2.48911,0 -1.26762,-1.52739 -1.26761,-1.52738 0.09,-3.43311 0.09,-3.4331 1.54794,-2.9934 c 0.85138,-1.64637 3.02834,-4.47379 4.83771,-6.28316 l 3.28976,-3.28976 3.68775,-1.88135 3.68775,-1.88135 2.14673,0.0144 c 1.18069,0.008 2.74179,0.39106 3.46908,0.85146 l 1.32238,0.83711 1.7011,-1.06236 1.70111,-1.06236 0.99287,0.99287 0.99287,0.99286 -3.78197,7.39525 -3.78197,7.39525 0,2.60403 0,2.60404 1.39146,0 1.39146,0 2.87381,-2.57813 2.87381,-2.57812 2.8155,-8.4375 2.8155,-8.4375 3.86072,-6.52737 3.86072,-6.52738 5.27638,-5.42575 5.27639,-5.42575 2.41733,0 2.41734,0 1.13697,1.36996 1.13697,1.36997 -1.02904,3.08316 c -0.56596,1.69574 -2.65418,5.6431 -4.64047,8.77192 -1.98629,3.12882 -7.25664,10.18679 -11.7119,15.68437 l -8.10041,9.99562 0,2.32951 0,2.32952 1.73423,0.92813 1.73422,0.92813 3.06446,-1.64349 3.06446,-1.64348 1.73918,-4.5817 1.73917,-4.58169 4.00902,-4.12016 c 2.20495,-2.26608 5.14821,-4.71913 6.54058,-5.45121 l 2.53157,-1.33106 2.25041,0 c 1.23773,0 3.57898,0.46314 5.20281,1.02921 l 2.95239,1.02921 0,3.08271 0,3.08271 -3.80003,5.69059 -3.80003,5.69059 -2.99685,2.52706 c -1.64826,1.38988 -4.35439,3.09594 -6.0136,3.79124 -1.65923,0.6953 -3.84393,1.26418 -4.85491,1.26418 l -1.83815,0 -1.39252,-1.39252 -1.39252,-1.39252 -2.65882,1.38675 -2.65882,1.38674 -4.00447,0.006 -4.00448,0.006 -1.04407,-2.29147 -1.04406,-2.29148 -3.37221,2.29148 -3.37221,2.2914 -2.40737,0 -2.40738,0 -1.125,-1.125 -1.125,-1.125 0,-2.8004 0,-2.8004 -2.57813,2.37538 c -1.41796,1.30645 -3.62121,3.07288 -4.8961,3.92539 l -2.31797,1.55003 -2.48911,0 z m 1.26568,-5.25824 c 0.64454,-0.37477 2.76062,-1.917 4.70242,-3.42717 l 3.53053,-2.74576 4.37517,-5.68587 4.37518,-5.68587 -3.13992,0.62798 -3.13992,0.62799 -3.22376,2.45888 -3.22376,2.45889 -2.71391,4.27938 -2.7139,4.27938 0,1.74678 0,1.74679 1.17188,-0.6814 z m 45.74969,0.57074 c 0.54122,0 2.22662,-0.64256 3.74531,-1.4279 l 2.76126,-1.42791 3.69377,-4.67296 c 2.03158,-2.57014 3.97548,-5.56056 4.31979,-6.64539 l 0.62602,-1.97242 -1.45925,-1.45925 -1.45926,-1.45926 -3.78615,2.62381 -3.78616,2.62381 -2.81969,4.25696 -2.8197,4.25697 0,2.65177 0,2.65177 0.98406,0 z m -13.39888,-14.53125 c 0.5065,-0.51563 3.26136,-4.1376 6.12191,-8.04884 2.86055,-3.91123 6.50137,-9.16179 8.09071,-11.66791 1.58933,-2.50613 2.8897,-5.10681 2.8897,-5.77929 l 0,-1.22271 -0.87309,0 -0.8731,0 -5.3157,7.26562 c -2.92363,3.9961 -6.27298,9.16407 -7.44299,11.48438 -1.17001,2.32031 -2.44028,5.27344 -2.82283,6.5625 l -0.69553,2.34375 0.92092,-0.9375 z m -222.13923,18.25909 -1.58529,0.0222 -0.59906,-0.96929 -0.59905,-0.96929 6.11643,-10.51508 c 3.36404,-5.7833 6.66731,-11.21077 7.3406,-12.06105 0.67329,-0.85028 2.17339,-1.82793 3.33354,-2.17255 l 2.10938,-0.62659 0,1.72957 0,1.72958 -1.61596,2.31798 -1.61596,2.31797 3.89203,-3.07205 c 2.14062,-1.68963 5.22455,-3.53657 6.85317,-4.10431 l 2.96114,-1.03226 1.45563,1.45564 1.45564,1.45564 -2.81424,4.99242 -2.81425,4.99242 -2.12848,0.31594 -2.12849,0.31595 0.47307,-2.19095 c 0.2602,-1.20502 0.79641,-3.03469 1.19157,-4.06594 l 0.7185,-1.875 -7.54955,7.39884 c -4.15225,4.06936 -8.74554,9.01642 -10.20731,10.99346 l -2.65776,3.59463 -1.5853,0.0222 z m 95.46749,-31.08043 -1.54411,0.30366 -0.53811,-1.40228 -0.5381,-1.40228 1.0087,-1.88476 1.00869,-1.88477 1.97036,-0.62537 1.97038,-0.62537 1.02807,1.02808 1.02808,1.02808 -1.92493,2.58068 -1.92493,2.58067 -1.5441,0.30366 z m -160.21032,-20.45971 -10.54687,2e-4 0.16732,-10.54708 0.16732,-10.54707 10.32951,-0.26461 10.32952,-0.26461 0.28441,4.95211 0.28442,4.95211 199.8731,0.22815 199.87309,0.22814 0.28316,-4.91564 0.28315,-4.91565 10.54687,-0.26508 10.54688,-0.26508 0,10.81196 0,10.81195 -10.78125,0 -10.78125,0 0,-4.6875 0,-4.6875 -200.15625,0 -200.15625,0 0,4.6875 0,4.6875 -10.54688,2e-4 z m 0,-2.07308 8.20313,-0.27087 0.27087,-8.20313 0.27088,-8.20312 -8.474,0 -8.474,0 0,8.474 0,8.474 8.20312,-0.27088 z m 421.875,0 8.20313,-0.27087 0,-7.96875 0,-7.96875 -8.20313,-0.27087 -8.20312,-0.27088 0,8.5105 0,8.5105 8.20312,-0.27088 z"
       id="path3457"
       inkscape:connector-curvature="0" />
  </g>
</svg>
